<svg xmlns="http://www.w3.org/2000/svg" width="40.543" height="47.683" viewBox="0 0 40.543 47.683">
  <path id="Path_120" data-name="Path 120" d="M39.758,21.468,20.859,1.106a2.9,2.9,0,0,0-.427-.38A2.776,2.776,0,0,0,19.95.444a2.68,2.68,0,0,0-.523-.176A2.619,2.619,0,0,0,18.878.2L1.425.016a1.319,1.319,0,0,0-.414.061,1.353,1.353,0,0,0-.37.183,1.418,1.418,0,0,0-.3.289,1.494,1.494,0,0,0-.215.38,1.56,1.56,0,0,0-.1.431,1.589,1.589,0,0,0,.023.435,1.57,1.57,0,0,0,.14.411,1.507,1.507,0,0,0,.252.358l19.872,21.1L.423,45.1a1.535,1.535,0,0,0-.253.361,1.595,1.595,0,0,0-.165.849,1.546,1.546,0,0,0,.1.43,1.469,1.469,0,0,0,.214.377,1.389,1.389,0,0,0,.3.286,1.331,1.331,0,0,0,.37.178,1.311,1.311,0,0,0,.414.056l3.62-.077,13.847-.34a2.664,2.664,0,0,0,.551-.073,2.747,2.747,0,0,0,.525-.184,2.862,2.862,0,0,0,.484-.288,2.992,2.992,0,0,0,.429-.386L39.755,25.605a2.907,2.907,0,0,0,.336-.447,3.039,3.039,0,0,0,.247-.505,3.139,3.139,0,0,0,.152-.547,3.183,3.183,0,0,0,0-1.147,3.1,3.1,0,0,0-.152-.545,2.991,2.991,0,0,0-.247-.5,2.848,2.848,0,0,0-.336-.443" fill="#ffb71b"/>
</svg>
