<svg xmlns="http://www.w3.org/2000/svg" width="22.495" height="23.729" viewBox="0 0 22.495 23.729">
  <path id="Path_122" data-name="Path 122" d="M11.295,23.583a10.771,10.771,0,0,0,4.369-.832,10.916,10.916,0,0,0,3.553-2.409,11.314,11.314,0,0,0,2.392-3.615,11.754,11.754,0,0,0,.887-4.462A12.033,12.033,0,0,0,19.28,4.017a11.622,11.622,0,0,0-3.533-2.6A11.073,11.073,0,0,0,11.386.358a10.775,10.775,0,0,0-4.4.763A10.906,10.906,0,0,0,3.369,3.5,11.3,11.3,0,0,0,.912,7.15,11.75,11.75,0,0,0,0,11.687a12.018,12.018,0,0,0,3.312,8.342,11.591,11.591,0,0,0,3.6,2.565,11.043,11.043,0,0,0,4.385.989" fill="#2a7de1"/>
</svg>
