<svg xmlns="http://www.w3.org/2000/svg" width="71.667" height="80.952" viewBox="0 0 71.667 80.952">
  <path id="Path_120" data-name="Path 120" d="M67.38,36.093,40.52,2.063a4.169,4.169,0,0,0-.624-.643,3.925,3.925,0,0,0-.728-.477,3.819,3.819,0,0,0-.809-.3A3.862,3.862,0,0,0,37.492.53L9.4.04a2.137,2.137,0,0,0-.682.1,2.387,2.387,0,0,0-.63.307,2.655,2.655,0,0,0-.538.488,2.855,2.855,0,0,0-.406.643,2.913,2.913,0,0,0-.226.731,2.806,2.806,0,0,0-.027.739,2.571,2.571,0,0,0,.167.7,2.293,2.293,0,0,0,.357.61l28.914,35.6L1.074,76.552a3.029,3.029,0,0,0-.466.62,3.071,3.071,0,0,0-.291.705,2.894,2.894,0,0,0-.1.741,2.566,2.566,0,0,0,.1.727,2.216,2.216,0,0,0,.294.634,1.965,1.965,0,0,0,.453.475,1.877,1.877,0,0,0,.577.291,1.974,1.974,0,0,0,.666.081l5.9-.246,22.37-1.013a4.258,4.258,0,0,0,.892-.14,4.716,4.716,0,0,0,.866-.326,5.224,5.224,0,0,0,.816-.5,5.707,5.707,0,0,0,.742-.661l32.89-34.967a5.523,5.523,0,0,0,.59-.748,5.819,5.819,0,0,0,.46-.843,5.922,5.922,0,0,0,.318-.912,5.823,5.823,0,0,0,.165-.955,5.533,5.533,0,0,0,0-.953,5.107,5.107,0,0,0-.159-.905,4.622,4.622,0,0,0-.313-.832,4.147,4.147,0,0,0-.461-.733" fill="#2a7de1"/>
</svg>
