<svg xmlns="http://www.w3.org/2000/svg" width="70.059" height="66.85" viewBox="0 0 70.059 66.85">
  <path id="Path_121" data-name="Path 121" d="M68.772,39.47l-29.494,24.8a4.25,4.25,0,0,1-.7.478,4.6,4.6,0,0,1-.794.34,4.921,4.921,0,0,1-.863.193,5.171,5.171,0,0,1-.908.038,5.308,5.308,0,0,1-1.776-.392,5.149,5.149,0,0,1-.8-.413,4.886,4.886,0,0,1-.708-.545L1.432,34.921A4.65,4.65,0,0,1,.358,33.454,3.879,3.879,0,0,1,0,31.844a3.551,3.551,0,0,1,.358-1.56,3.81,3.81,0,0,1,1.073-1.318L32.727,4.3a4.016,4.016,0,0,1,.708-.446,4.408,4.408,0,0,1,.8-.3A4.814,4.814,0,0,1,35.1,3.4a5.168,5.168,0,0,1,.909.006,5.413,5.413,0,0,1,.908.165,5.505,5.505,0,0,1,.863.314,5.427,5.427,0,0,1,.794.451,5.193,5.193,0,0,1,.7.576L68.772,33.827a4.392,4.392,0,0,1,.965,1.389,3.834,3.834,0,0,1,.321,1.523,3.523,3.523,0,0,1-.321,1.478,3.609,3.609,0,0,1-.965,1.254" fill="#00ac69"/>
</svg>
