<svg xmlns="http://www.w3.org/2000/svg" width="14" height="14" viewBox="0 0 14 14">
  <g id="external-link_1_" data-name="external-link (1)" transform="translate(0 0)">
    <path id="Path_394" data-name="Path 394" d="M9.692,11.87v1.812a1.011,1.011,0,0,1-1.01,1.01H2.625a1.011,1.011,0,0,1-1.01-1.01V7.625a1.011,1.011,0,0,1,1.01-1.01H4.471L6.087,5H2.625A2.625,2.625,0,0,0,0,7.625v6.058a2.625,2.625,0,0,0,2.625,2.625H8.683a2.625,2.625,0,0,0,2.625-2.625V10.254Z" transform="translate(0 -2.308)" fill="#4d4d4d"/>
    <g id="Group_128" data-name="Group 128" transform="translate(4.525 0)">
      <path id="Path_395" data-name="Path 395" d="M16.038,0H10.514C9.5,0,9.569.275,10.1.81l1.734,1.734L8.866,5.515a1.576,1.576,0,0,0,0,2.23l1.3,1.3a1.577,1.577,0,0,0,2.229,0l2.972-2.972,1.7,1.7c.593.592.811.608.811-.408V1.841C17.878-.01,17.891,0,16.038,0Z" transform="translate(-8.404 0)" fill="#4d4d4d"/>
    </g>
  </g>
</svg>
