<svg xmlns="http://www.w3.org/2000/svg" width="53.06" height="60.462" viewBox="0 0 53.06 60.462">
  <path id="Path_121" data-name="Path 121" d="M50.952,27.121,30.723,53.24a4.284,4.284,0,0,1-.483.527,4.2,4.2,0,0,1-.556.433,4,4,0,0,1-.611.327,3.706,3.706,0,0,1-.649.21,3.376,3.376,0,0,1-.657.081,3.063,3.063,0,0,1-.633-.05,2.811,2.811,0,0,1-.591-.179,2.652,2.652,0,0,1-.531-.3L2.491,36.946a2.763,2.763,0,0,1-.822-.972,3.055,3.055,0,0,1-.322-1.229,3.611,3.611,0,0,1,.187-1.331,4.138,4.138,0,0,1,.7-1.278L23.472,5.817a4.053,4.053,0,0,1,.488-.508,3.989,3.989,0,0,1,.56-.41,3.831,3.831,0,0,1,.615-.3,3.605,3.605,0,0,1,.652-.182,3.349,3.349,0,0,1,.658-.052,3.108,3.108,0,0,1,.632.077,2.913,2.913,0,0,1,.589.2,2.789,2.789,0,0,1,.528.324L50.711,22.507a2.67,2.67,0,0,1,.76.939,3.044,3.044,0,0,1,.3,1.18A3.576,3.576,0,0,1,51.6,25.9a3.974,3.974,0,0,1-.647,1.222" fill="#00ac69"/>
</svg>
