<svg xmlns="http://www.w3.org/2000/svg" width="73.53" height="74.818" viewBox="0 0 73.53 74.818">
  <path id="Path_123" data-name="Path 123" d="M73.359,30.94l-1.711-5.446h0a3.789,3.789,0,0,0-.662-1.238,3.685,3.685,0,0,0-1.022-.877,3.584,3.584,0,0,0-1.259-.443A3.535,3.535,0,0,0,67.331,23L47.648,24.911,44.591,4.62a3.913,3.913,0,0,0-.346-1.444A3.949,3.949,0,0,0,42.231,1.19,3.829,3.829,0,0,0,40.788.873L34.929.748a3.788,3.788,0,0,0-3.864,3.624l-3.14,20.5L6.919,22.79A4.1,4.1,0,0,0,4,23.171a4.024,4.024,0,0,0-1.139.919,3.923,3.923,0,0,0-.74,1.306L.2,31.186a3.884,3.884,0,0,0,.226,3,3.971,3.971,0,0,0,.934,1.194,4.053,4.053,0,0,0,1.374.782L21.3,44.4,9.544,64.806a4.1,4.1,0,0,0-.281.506,4.05,4.05,0,0,0-.2.536,3.988,3.988,0,0,0-.126.556,3.928,3.928,0,0,0-.045.569v.134q0,.169.022.337t.051.332q.033.165.08.325t.108.317a3.713,3.713,0,0,0,1.384,1.719l2.98,2.034,1.919,1.307a3.814,3.814,0,0,0,1.4.594,3.988,3.988,0,0,0,1.484.021,4.124,4.124,0,0,0,2.565-1.554l16.989-15.7L54.393,71.321a3.524,3.524,0,0,0,2.418,1.328,3.66,3.66,0,0,0,1.39-.126,3.811,3.811,0,0,0,1.3-.672l1.784-1.391,2.745-2.148a3.875,3.875,0,0,0,.753-.775,3.922,3.922,0,0,0,.513-.956q.056-.153.1-.31t.074-.316q.03-.159.048-.32t.021-.323c0-.012,0-.023,0-.034v-.095a3.832,3.832,0,0,0-.04-.541,3.779,3.779,0,0,0-.115-.524,3.712,3.712,0,0,0-.187-.5,3.654,3.654,0,0,0-.258-.467l-10.95-19.22,17.1-8.267a3.637,3.637,0,0,0,.791-.409,3.719,3.719,0,0,0,.665-.582,3.8,3.8,0,0,0,.514-.727,3.857,3.857,0,0,0,.293-3.007" fill="#00ac69"/>
</svg>
