<svg xmlns="http://www.w3.org/2000/svg" width="40.543" height="47.683" viewBox="0 0 40.543 47.683">
  <path id="Path_120" data-name="Path 120" d="M39.758,21.468,20.859,1.106a2.9,2.9,0,0,0-.427-.38A2.777,2.777,0,0,0,19.95.444a2.681,2.681,0,0,0-.523-.176A2.619,2.619,0,0,0,18.878.2L1.425.015a1.319,1.319,0,0,0-.414.061,1.353,1.353,0,0,0-.37.183,1.418,1.418,0,0,0-.3.289,1.494,1.494,0,0,0-.215.38,1.559,1.559,0,0,0-.1.431,1.588,1.588,0,0,0,.023.435,1.569,1.569,0,0,0,.14.411,1.507,1.507,0,0,0,.252.358l19.872,21.1L.423,45.1a1.535,1.535,0,0,0-.253.361,1.594,1.594,0,0,0-.165.849,1.547,1.547,0,0,0,.1.43,1.469,1.469,0,0,0,.214.377,1.389,1.389,0,0,0,.3.286,1.331,1.331,0,0,0,.37.178,1.311,1.311,0,0,0,.414.056l3.62-.077,13.847-.34a2.665,2.665,0,0,0,.551-.073,2.747,2.747,0,0,0,.525-.184,2.861,2.861,0,0,0,.484-.288,2.992,2.992,0,0,0,.429-.386L39.755,25.605a2.906,2.906,0,0,0,.336-.447,3.039,3.039,0,0,0,.247-.505,3.138,3.138,0,0,0,.152-.547,3.183,3.183,0,0,0,0-1.147,3.1,3.1,0,0,0-.152-.545,2.991,2.991,0,0,0-.247-.5,2.849,2.849,0,0,0-.336-.443" fill="#e1251b"/>
</svg>
