<svg xmlns="http://www.w3.org/2000/svg" width="39.978" height="49.734" viewBox="0 0 39.978 49.734">
  <path id="Path_123" data-name="Path 123" d="M39.882,19.308l-.954-3.521h0A2.48,2.48,0,0,0,38.559,15a2,2,0,0,0-.569-.54,1.676,1.676,0,0,0-1.465-.159L25.664,16.216,23.991,3.12a2.83,2.83,0,0,0-.189-.926,2.394,2.394,0,0,0-.45-.736A1.956,1.956,0,0,0,22.7.981a1.73,1.73,0,0,0-.787-.15L18.727.978a1.86,1.86,0,0,0-.792.224,2.258,2.258,0,0,0-.655.54,2.723,2.723,0,0,0-.455.782,3,3,0,0,0-.192.949l-1.7,13.376L3.672,16.2a1.812,1.812,0,0,0-.808,0,2.063,2.063,0,0,0-.743.34,2.487,2.487,0,0,0-.6.627,2.881,2.881,0,0,0-.393.861L.106,21.8a3.033,3.033,0,0,0-.1,1,2.8,2.8,0,0,0,.219.916,2.345,2.345,0,0,0,.5.737,1.937,1.937,0,0,0,.729.46l9.914,4.751L5.071,43.1a2.978,2.978,0,0,0-.15.332,3.075,3.075,0,0,0-.2,1.075v.086q0,.109.012.216t.027.212q.018.1.043.207t.058.2a2.5,2.5,0,0,0,.13.319,2.317,2.317,0,0,0,.168.288,2.135,2.135,0,0,0,.2.253A1.975,1.975,0,0,0,5.6,46.5L7.19,47.746l1.027.8a1.766,1.766,0,0,0,1.544.334,2.087,2.087,0,0,0,.754-.366,2.563,2.563,0,0,0,.623-.691L20.324,37.26l9.044,9.023a1.949,1.949,0,0,0,.6.577,1.679,1.679,0,0,0,.729.235,1.746,1.746,0,0,0,.767-.114,2.122,2.122,0,0,0,.719-.469l.987-.951,1.52-1.47a2.46,2.46,0,0,0,.224-.246,2.655,2.655,0,0,0,.194-.279,2.819,2.819,0,0,0,.16-.308,2.946,2.946,0,0,0,.124-.331q.031-.1.055-.205t.041-.209q.017-.105.026-.211t.012-.212c0-.008,0-.015,0-.022s0-.014,0-.021,0-.014,0-.02v-.021a2.935,2.935,0,0,0-.022-.354,2.8,2.8,0,0,0-.064-.341,2.623,2.623,0,0,0-.1-.323,2.422,2.422,0,0,0-.143-.3L29.147,28.416l9.469-5.931a2.091,2.091,0,0,0,.441-.293,2.421,2.421,0,0,0,.371-.4,2.737,2.737,0,0,0,.287-.494,2.968,2.968,0,0,0,.188-.564,3.02,3.02,0,0,0,.074-.718,2.932,2.932,0,0,0-.028-.356,2.8,2.8,0,0,0-.071-.347" fill="#e1251b"/>
</svg>
