<svg xmlns="http://www.w3.org/2000/svg" width="40.542" height="45.835" viewBox="0 0 40.542 45.835">
  <path id="Path_131" data-name="Path 131" d="M689.156,241.737h-1.14c.008-.206.013-.416.013-.63a14.776,14.776,0,1,0-29.552,0c0,.215.01.424.02.63H656.7a3.024,3.024,0,0,0-3.047,3v22.436a3.023,3.023,0,0,0,3.047,3h32.453a3.02,3.02,0,0,0,3.042-3V244.733a3.02,3.02,0,0,0-3.043-3m-25.549-.63a9.638,9.638,0,1,1,19.276,0c0,.215-.019.424-.039.63h-19.2c-.015-.206-.035-.416-.035-.63" transform="translate(-652.656 -225.33)" fill="none" stroke="#00a0df" stroke-width="2"/>
</svg>
