<svg xmlns="http://www.w3.org/2000/svg" width="83.517" height="80.689" viewBox="0 0 83.517 80.689">
  <path id="Path_123" data-name="Path 123" d="M83.324,31.4,81.4,25.623h0a3.875,3.875,0,0,0-.746-1.307,3.968,3.968,0,0,0-1.152-.911,4.1,4.1,0,0,0-1.42-.441,4.213,4.213,0,0,0-1.549.1l-22.251,2.56L50.815,3.941A3.955,3.955,0,0,0,50.423,2.4a4.127,4.127,0,0,0-.935-1.247,4.348,4.348,0,0,0-1.35-.837A4.5,4.5,0,0,0,46.5.01l-6.653,0a4.6,4.6,0,0,0-1.658.312,4.454,4.454,0,0,0-1.374.847,4.206,4.206,0,0,0-.956,1.264A3.987,3.987,0,0,0,35.455,4l-3.573,22.11L7.918,24.414a4.991,4.991,0,0,0-3.337.487,4.719,4.719,0,0,0-1.3,1.021,4.3,4.3,0,0,0-.847,1.428l-2.2,6.293a4,4,0,0,0-.214,1.677,3.946,3.946,0,0,0,.474,1.553,4.179,4.179,0,0,0,1.07,1.262,4.583,4.583,0,0,0,1.573.805l21.2,8.338L10.92,69.6a4.511,4.511,0,0,0-.321.554,4.33,4.33,0,0,0-.234.583,4.165,4.165,0,0,0-.144.6,4.021,4.021,0,0,0-.051.614V72.1q0,.182.025.362t.059.356q.038.176.091.348t.124.338a3.763,3.763,0,0,0,.279.536,3.829,3.829,0,0,0,.361.485,3.939,3.939,0,0,0,.436.426,4.079,4.079,0,0,0,.5.361l3.4,2.094,2.191,1.345a4.37,4.37,0,0,0,1.593.594,4.818,4.818,0,0,0,1.693-.026,5.01,5.01,0,0,0,1.6-.606,4.83,4.83,0,0,0,1.323-1.148l19.329-17.4,18.73,15.02a3.794,3.794,0,0,0,1.239.953,4.087,4.087,0,0,0,1.5.392,4.393,4.393,0,0,0,1.572-.179,4.546,4.546,0,0,0,1.471-.761l2.016-1.547,3.1-2.386a4.463,4.463,0,0,0,.456-.4,4.409,4.409,0,0,0,.394-.454,4.332,4.332,0,0,0,.326-.5,4.235,4.235,0,0,0,.253-.539q.064-.165.113-.334t.083-.34q.034-.171.054-.344t.024-.346c0-.012,0-.024,0-.036V68.29c0-.011,0-.022,0-.034a3.865,3.865,0,0,0-.045-.578,3.8,3.8,0,0,0-.129-.558,3.723,3.723,0,0,0-.5-1.022L61.46,45.841l19.306-9.327a4.3,4.3,0,0,0,1.641-1.1,4.215,4.215,0,0,0,.579-.791,4.115,4.115,0,0,0,.38-.91,3.994,3.994,0,0,0,.119-.58,3.942,3.942,0,0,0,.031-.585,3.893,3.893,0,0,0-.056-.581,3.852,3.852,0,0,0-.143-.567" fill="#ffb71b"/>
</svg>
